<?xml version="1.0" encoding="UTF-8"?><svg id="_레이어_2" xmlns="http://www.w3.org/2000/svg" viewBox="0 0 42.21 41.62"><defs><style>.cls-1{fill:#1e1d19;}.cls-2{fill:#f1605f;}</style></defs><g id="Layer_1"><g><path class="cls-1" d="M21.1,41.62c11.64,0,21.1-9.33,21.1-20.81S32.74,0,21.1,0,0,9.33,0,20.81s9.47,20.81,21.1,20.81ZM11.93,20.76c0-5.01,4.09-9.04,9.17-9.04s9.17,4.04,9.17,9.04c0,0,0,.02,0,.02s0,.02,0,.02c0,5.01-4.09,9.04-9.17,9.04s-9.17-4.04-9.17-9.04c0,0,0-.02,0-.03,0,0,0-.02,0-.02Z"/><path class="cls-2" d="M21.1,29.8c5.07,0,9.16-4.02,9.17-9.02-.01-5-4.1-9.02-9.17-9.02s-9.15,4.02-9.17,9.02c.01,5,4.1,9.02,9.17,9.02Zm0-15.02c3.35,0,6.06,2.67,6.06,5.98s-2.71,5.98-6.06,5.98-6.06-2.67-6.06-5.98,2.71-5.98,6.06-5.98Z"/></g></g></svg>